<svg xmlns="http://www.w3.org/2000/svg" viewBox="0 0 579.9 579.9"><defs><style>.a{fill:#7b6d53;}</style></defs><path class="a" d="M306,12.9C145.9,12.9,16,142.7,16,302.8s129.9,290,290,290S596,463,596,302.8,466.1,12.9,306,12.9Zm29.1,317.6c-6.8,0-13.7,0-20.5-1.2,35.5-14.7,55.6-44.9,55.7-83.2.1-40.7-14.1-72.8-58.7-74.6l-.8,236.8c-.1,32.6.4,58.3,24.9,81.3v1.7L183,490.8v-1.7c28.1-17.7,24.2-50.3,24.2-80.1l.8-212.7c.1-29.7,4.3-62.4-23.7-80.2v-1.8l135,.5c32,.2,73.8-.2,102.3,14.1,34.8,17.3,54.2,50.5,54,89.5C475.4,299.6,406.6,330.8,335.1,330.5Z" transform="translate(-16 -12.9)"/></svg>